Patient4_TMGait_0pt3_03_left_09_EMG.mot
version=1
nRows=26
nColumns=33
inDegrees=no
endheader
time	1LAddLong	2LGlutMax	3LGlutMed	4LIliopsoas	5LSemiMemb	6LBicFemLong	7LRecFem	8LVastMed	9LVastLat	10LGasMed	11LTibAnt	12lTibPost	13LPeroneusLong	14LSol	15LExtDigLong	16LFlexDigLong	17RAddLong	18RGlutMax	19RGlutMed	20RIliopsoas	21RSemiMemb	22RBicFemLong	23RRecFem	24RVastMed	25RVastLat	26RGasMed	27RTibAnt	28RTibPost	29RPeroneusLong	30RSol	31RExtDigLong	32RFlexDigLong
16.712	0.005798	-0.25085	0.053406	-0.014038	0.037231	0.1358	0.11063	-0.001678	-0.070648	0.1181	0.031128	-0.00061	-0.80688	-0.13397	0.001678	0.015564	0.016022	-0.079956	0.03418	0.047302	-0.22095	-0.1236	0.17639	-0.052032	-0.041504	-0.053406	-0.044556	-0.06134	0.19974	0.52155	-0.005188	-0.020599
16.713	0.007935	-0.23209	0.04425	-0.009918	-0.021057	0.21927	0.088806	-0.001984	-0.064545	0.045013	0.016479	0.001984	-0.94162	0.047455	-0.003815	0.023193	-0.011749	-0.073242	0.083771	-0.052185	-0.23911	-0.14389	0.18921	-0.062866	-0.041351	-0.073242	-0.062866	-0.036926	0.063019	1.1163	-0.005035	-0.018311
16.714	-0.009918	-0.24307	0.033264	-0.003662	-0.041046	0.26825	0.085754	0.011444	-0.066071	-0.038605	0.000763	0.00412	-0.63309	0.21622	0.071106	0.033722	-0.033722	-0.088348	0.066223	-0.033722	-0.019226	-0.13001	0.18387	0.013733	0.002899	-0.023956	-0.066223	0.008392	-0.045929	1.1877	-0.010681	-0.014038
16.715	-0.035553	-0.20218	0.046539	0.007019	-0.15869	0.2771	0.086975	0.013885	-0.066528	-0.51865	-0.005493	0.023804	-0.46371	0.045776	0.025787	0.010681	-0.065308	-0.077667	0.053253	0.034943	0.21439	-0.086975	0.14862	0.045319	0.033417	0.001984	-0.028687	0.025635	-0.10864	0.99991	-0.006866	-0.010223
16.716	-0.043945	-0.21713	0.047302	0.000153	-0.23926	0.1622	0.065155	0.014038	-0.065918	-0.78949	-0.034485	0.010376	-0.028992	-0.063782	-0.053864	0.000763	-0.064392	-0.048828	-0.006104	0.036926	0.21576	0.038147	0.006866	0.070648	0.011902	0.011139	0.003357	0.008087	-0.25757	0.41107	-0.00824	-0.002899
16.717	-0.037384	-0.19806	0.001526	0.017395	-0.24353	-0.019073	0.075378	0.00885	-0.050812	-0.37857	-0.015869	-0.00412	-0.067139	-0.17502	-0.07019	-0.000763	-0.066376	-0.056305	0.042725	0.001678	0.036774	0.20386	-0.099792	0.094757	0.046234	-0.010071	0.061646	0.001984	-0.30899	-0.56244	-0.009003	-0.008545
16.718	0.007935	-0.19333	-0.019989	-0.005188	-0.033264	-0.15335	0.042267	0.004578	-0.03952	0.057526	-0.010376	-0.041809	0.15305	-0.21133	-0.12146	-0.00824	-0.033875	-0.11032	0.12451	-0.036316	0.063019	0.23911	-0.10803	0.062103	-0.00946	-0.011749	0.079193	-0.036163	-0.10819	-1.1174	-0.005493	-0.009766
16.719	0.054016	-0.19623	-0.019989	-0.007477	0.24109	-0.11047	0.032501	-0.012665	-0.038147	0.1709	-0.032501	-0.022888	0.21378	0.014038	-0.1033	-0.016022	0.009766	-0.12726	0.18219	-0.059052	0.062408	0.13153	-0.060577	-0.000305	-0.046692	0.02655	0.00885	-0.08667	0.045929	-0.95871	-0.007782	-0.010986
16.72	0.050507	-0.13473	-0.004883	0.02121	0.25177	-0.071716	0.063019	-0.001984	-0.062714	-0.10696	-0.031433	-0.025482	0.13733	0.18875	0.013885	-0.014801	0.005188	-0.10666	0.054779	-0.029144	0.021362	0.15961	-0.001373	-0.02121	0.000153	0.012817	-0.000153	-0.36133	-0.28915	-0.067291	-0.005341	-0.006714
16.721	0.038757	-0.11673	0.067291	0.031433	0.14648	-0.031738	0.075836	-0.001068	-0.063934	-0.15747	-0.007019	-0.029144	-0.014191	0.1149	-0.032349	-0.012665	-0.012054	-0.072327	0.095215	-0.031586	-0.02655	0.25543	0.080109	-0.049133	-0.028076	0.006561	0.023193	-0.059052	-0.65842	0.25421	-0.005188	-0.002289
16.722	0.029449	-0.074463	0.13657	0.01358	0.088959	0.026093	0.032959	0.003662	-0.052032	-0.47867	-0.007629	-0.045319	0.090942	0.076447	-0.15656	0.005035	0.036163	-0.066223	0.023499	-0.005188	0.011597	0.16754	0.14771	-0.1445	-0.084686	0.020905	-0.001678	0.18768	-0.13077	-0.018158	-0.006866	-0.005493
16.723	0.014343	-0.032501	0.1091	0.000763	0.076752	0.075989	0.035248	0.012512	-0.050507	-0.25604	0.001831	-0.027924	-0.22217	0.24872	-0.030823	-0.022278	0.048218	-0.029907	0.16144	0.053864	0.011597	0.1004	0.20462	-0.14206	-0.074921	0.019226	-0.024719	0.19272	0.5014	-0.24246	-0.00061	-0.007782
16.724	0.011444	-0.026245	0.037384	-0.010223	0.057831	0.13626	0.003815	0.011292	-0.025177	-0.29465	0.015259	-0.010529	-0.31525	0.28503	0.065308	-0.014954	-0.001068	-0.10819	0.19836	0.065765	0.032654	0.082397	0.16357	-0.001526	-0.024719	0.018158	-0.020142	0.16922	0.39368	-0.10696	-0.007172	-0.00473
16.725	0.012817	0.00061	0.031738	-0.009003	0.032654	0.18616	-0.031281	0.013428	-0.02655	0.12238	0.044708	-0.010529	0.05249	0.34897	0.037231	0.000916	-0.007629	-0.088654	-0.017853	-0.096436	-0.043335	0.05661	0.12451	-0.03067	0.017548	0.011139	-0.018005	-0.044861	0.29159	0.28992	-0.007629	-0.01297
16.726	0.015869	0.002136	0.025482	-0.008698	0.009155	0.15915	-0.028076	0.009766	-0.022888	-0.047302	-0.051422	-0.022736	0.28793	0.17273	0.057068	-0.010223	0.022278	-0.11551	-0.10056	-0.18631	-0.014801	-0.022736	0.16296	-0.027924	0.027161	0.017853	-0.040436	-0.80749	0.14694	0.14053	-0.008545	-0.011597
16.727	0.005951	0.014343	0.049133	0.0177	0.004272	0.008392	-0.039368	0.011749	-0.012817	-0.25528	0.04425	-0.032501	0.006561	0.020599	0.009155	-0.015564	0.033112	-0.14145	-0.074463	-0.13779	-0.000458	-0.022888	0.17975	-0.002594	0.036469	0.03067	0.003052	-0.10132	-0.19409	-0.37811	-0.005646	-0.007935
16.728	-0.008392	0.050507	0.090485	-0.002136	-0.002747	-0.083466	-0.018616	0.01236	-0.005798	0.2327	-0.004578	-0.042267	0.058441	-0.082855	0.023804	-0.005493	0.0177	-0.10132	-0.050659	-0.003967	0.23193	-0.013123	0.076752	-0.024109	0.066986	0.033875	0.027313	0.25223	-0.20767	-0.867	-0.005341	-0.016174
16.729	-0.004425	0.037842	0.055389	0.008698	-0.010071	-0.085907	-0.023804	0.012054	0.00412	0.59235	-0.011749	-0.0383	0.086517	-0.15259	0.024414	-0.009613	0.02182	-0.1828	0.14053	0.25284	0.13687	-0.098724	0.10651	-0.017548	0.092468	-0.003662	0.047455	0.36774	-0.36423	-1.2686	-0.007629	-0.013123
16.73	-0.013275	-0.011444	-0.022278	0.00061	-0.031433	0.007935	0.005646	0.007782	-0.01709	0.68588	0.019531	-0.037537	0.082703	-0.097504	-0.019684	-0.006561	0.024414	-0.18814	0.14023	0.26443	0.052032	-0.097046	0.1265	-0.035095	0.055389	-0.009155	-0.002594	0.074921	-0.20309	-0.62927	-0.007782	-0.010223
16.731	-0.012207	0.080872	-0.045166	-0.005493	-0.10071	-0.11627	-0.005646	0.012054	-0.042725	0.79575	-0.000153	-0.019989	0.056458	-0.17502	-0.046082	-0.001678	-0.012054	-0.15457	-0.032043	0.2034	-0.015869	-0.006409	0.003967	0.015869	0.062561	-0.028381	0.03952	0.13962	-0.069733	-0.22568	-0.007019	-0.012512
16.732	-0.015259	0.087128	0.003967	-0.001221	-0.09491	-0.075684	-0.030518	0.011902	-0.060577	1.2611	0.011902	-0.015411	0.030518	-0.10819	-0.029144	-0.001984	0.001526	-0.13473	0.11078	0.098572	-0.13031	-0.054626	0.021667	0.011139	0.066071	-0.039063	0.061646	0.15182	-0.059204	-0.41397	-0.006104	-0.013123
16.733	-0.014496	0.10773	0.022888	-0.016022	-0.043182	0.10132	-0.080872	0.010834	-0.045929	1.5091	-0.007629	0.005188	0.021362	0.077667	0.072632	0.002289	0.019379	-0.096893	0.19348	-0.012054	-0.11368	-0.001526	0.083618	0.067291	0.008545	-0.03952	0.05188	-0.019684	0.004272	-0.070496	-0.006866	-0.018158
16.734	0.021515	0.15121	-0.004272	-0.014038	-0.004883	0.18997	-0.10727	0.005646	-0.04364	-0.059052	0.000763	-0.003052	0.085297	0.016937	0.11581	0	0.032806	-0.086517	0.18021	-0.054169	0.018616	0.051422	0.09903	0.015717	-0.005798	-0.028229	0.019836	0.093842	-0.10254	0.074463	0.000916	-0.021362
16.735	0.030823	0.19028	-0.049286	0.015106	0.024719	0.2121	-0.096283	0.007782	-0.047607	-0.44159	-0.003815	-0.014191	0.080719	-0.080414	0.076752	0.008545	0.032959	-0.11765	0.073242	-0.063171	0.15503	0.11093	0.13062	-0.020447	-0.01709	-0.024872	-0.14175	0.021362	-0.11307	-0.52155	-0.006409	-0.019531
16.736	0.021362	0.20401	0.12909	0.011902	-0.015717	0.0737	-0.14313	0.021362	-0.06424	-0.17364	-0.022736	-0.014801	0.044708	-0.050354	0.038147	-0.002747	0.015869	-0.050812	-0.044556	-0.00946	0.18448	0.12116	0.11276	-0.011902	0.000763	-0.020447	-0.12848	0.014648	0.08667	-0.33554	-0.007019	-0.014648
16.737	0.011597	0.17441	0.085602	0.01236	-0.02243	0.019379	-0.15686	0.016785	-0.098877	-0.49667	-0.021057	-0.000153	0.014801	-0.18921	0.059357	-0.016022	0.000458	-0.061951	-0.09613	0.10941	-0.10483	0.25574	0.078735	0.02655	0.021667	-0.010986	0.03891	-0.13886	0.19531	-0.15015	-0.006256	-0.015869
